<svg xmlns="http://www.w3.org/2000/svg" style="display:none"><symbol id="cart" viewBox="0 0 24 24"><circle cx="8" cy="21" r="2" stroke-linecap="round" stroke-linejoin="round" stroke-width="2"/><circle cx="20" cy="21" r="2" stroke-linecap="round" stroke-linejoin="round" stroke-width="2"/><path d="M5.67,6H23l-1.68,8.39a2,2,0,0,1-2,1.61H8.75a2,2,0,0,1-2-1.74L5.23,2.74A2,2,0,0,0,3.25,1H1" stroke-linecap="round" stroke-linejoin="round" stroke-width="2"/></symbol><symbol id="chevron-left" stroke-linecap="round" stroke-linejoin="round" stroke-width="2" viewBox="0 0 24 24"><polyline points="15 18 9 12 15 6"/></symbol><symbol id="chevron-right" stroke-linecap="round" stroke-linejoin="round" stroke-width="2" viewBox="0 0 24 24"><polyline points="9 18 15 12 9 6"/></symbol><symbol id="close" stroke-linecap="round" stroke-linejoin="round" stroke-width="2" viewBox="0 0 24 24"><line x1="18" x2="6" y1="6" y2="18"/><line x1="6" x2="18" y1="6" y2="18"/></symbol><symbol id="edit" viewBox="0 0 24 24"><polygon points="16 3 21 8 8 21 3 21 3 16 16 3" stroke-linecap="round" stroke-linejoin="round" stroke-width="2"/></symbol><symbol id="filter" stroke-linecap="round" stroke-linejoin="round" stroke-width="2" viewBox="0 0 24 24"><polygon points="22 3 2 3 10 12.46 10 19 14 21 14 12.46 22 3"/></symbol><symbol id="grid" viewBox="0 0 24 24"><rect height="7" stroke-linecap="round" stroke-linejoin="round" stroke-width="2" width="7" x="3" y="3"/><rect height="7" stroke-linecap="round" stroke-linejoin="round" stroke-width="2" width="7" x="14" y="3"/><rect height="7" stroke-linecap="round" stroke-linejoin="round" stroke-width="2" width="7" x="14" y="14"/><rect height="7" stroke-linecap="round" stroke-linejoin="round" stroke-width="2" width="7" x="3" y="14"/></symbol><symbol id="home" stroke-linecap="round" stroke-linejoin="round" stroke-width="2" viewBox="0 0 24 24"><path d="M3 9l9-7 9 7v11a2 2 0 0 1-2 2H5a2 2 0 0 1-2-2z"/><polyline points="9 22 9 12 15 12 15 22"/></symbol><symbol id="list" viewBox="0 0 24 24"><line stroke-linecap="round" stroke-miterlimit="10" stroke-width="2" x1="8" x2="21" y1="6" y2="6"/><line stroke-linecap="round" stroke-miterlimit="10" stroke-width="2" x1="8" x2="21" y1="12" y2="12"/><line stroke-linecap="round" stroke-miterlimit="10" stroke-width="2" x1="8" x2="21" y1="18" y2="18"/><line stroke-linecap="round" stroke-miterlimit="10" stroke-width="2" x1="3" x2="3" y1="6" y2="6"/><line stroke-linecap="round" stroke-miterlimit="10" stroke-width="2" x1="3" x2="3" y1="12" y2="12"/><line stroke-linecap="round" stroke-miterlimit="10" stroke-width="2" x1="3" x2="3" y1="18" y2="18"/></symbol><symbol id="map-pin" stroke-linecap="round" stroke-linejoin="round" stroke-width="2" viewBox="0 0 24 24"><path d="M21 10c0 7-9 13-9 13s-9-6-9-13a9 9 0 0 1 18 0z"/><circle cx="12" cy="10" r="3"/></symbol><symbol id="maximize" height="24" stroke-linecap="round" stroke-linejoin="round" stroke-width="2" viewBox="0 0 24 24"><polyline points="15 3 21 3 21 9"/><polyline points="9 21 3 21 3 15"/><line x1="21" x2="14" y1="3" y2="10"/><line x1="3" x2="10" y1="21" y2="14"/></symbol><symbol id="menu" height="24" stroke-linecap="round" stroke-linejoin="round" stroke-width="2" viewBox="0 0 24 24"><line x1="3" x2="21" y1="12" y2="12"/><line x1="3" x2="21" y1="6" y2="6"/><line x1="3" x2="21" y1="18" y2="18"/></symbol><symbol id="search" height="24" stroke-linecap="round" stroke-linejoin="round" stroke-width="2" viewBox="0 0 24 24"><circle cx="10.5" cy="10.5" r="7.5"/><line x1="21" x2="15.8" y1="21" y2="15.8"/></symbol><symbol id="trash" height="24" stroke-linecap="round" stroke-linejoin="round" stroke-width="2" viewBox="0 0 24 24"><polyline points="3 6 5 6 21 6"/><path d="M19 6v14a2 2 0 0 1-2 2H7a2 2 0 0 1-2-2V6m3 0V4a2 2 0 0 1 2-2h4a2 2 0 0 1 2 2v2"/><line x1="10" x2="10" y1="11" y2="17"/><line x1="14" x2="14" y1="11" y2="17"/></symbol></svg>