<svg xmlns="http://www.w3.org/2000/svg" style="display:none"><symbol id="cart" viewBox="0 0 24 24"><circle cx="8" cy="21" r="2" stroke-linecap="round" stroke-linejoin="round" stroke-width="2"/><circle cx="20" cy="21" r="2" stroke-linecap="round" stroke-linejoin="round" stroke-width="2"/><path d="M5.67,6H23l-1.68,8.39a2,2,0,0,1-2,1.61H8.75a2,2,0,0,1-2-1.74L5.23,2.74A2,2,0,0,0,3.25,1H1" stroke-linecap="round" stroke-linejoin="round" stroke-width="2"/></symbol><symbol id="chevron-left" stroke-linecap="round" stroke-linejoin="round" stroke-width="2" viewBox="0 0 24 24"><polyline points="15 18 9 12 15 6"/></symbol><symbol id="chevron-right" stroke-linecap="round" stroke-linejoin="round" stroke-width="2" viewBox="0 0 24 24"><polyline points="9 18 15 12 9 6"/></symbol><symbol id="close" stroke-linecap="round" stroke-linejoin="round" stroke-width="2" viewBox="0 0 24 24"><line x1="18" x2="6" y1="6" y2="18"/><line x1="6" x2="18" y1="6" y2="18"/></symbol><symbol id="edit" viewBox="0 0 24 24"><polygon points="16 3 21 8 8 21 3 21 3 16 16 3" stroke-linecap="round" stroke-linejoin="round" stroke-width="2"/></symbol><symbol id="filter" stroke-linecap="round" stroke-linejoin="round" stroke-width="2" viewBox="0 0 24 24"><polygon points="22 3 2 3 10 12.46 10 19 14 21 14 12.46 22 3"/></symbol><symbol id="grid" viewBox="0 0 24 24"><rect height="7" stroke-linecap="round" stroke-linejoin="round" stroke-width="2" width="7" x="3" y="3"/><rect height="7" stroke-linecap="round" stroke-linejoin="round" stroke-width="2" width="7" x="14" y="3"/><rect height="7" stroke-linecap="round" stroke-linejoin="round" stroke-width="2" width="7" x="14" y="14"/><rect height="7" stroke-linecap="round" stroke-linejoin="round" stroke-width="2" width="7" x="3" y="14"/></symbol><symbol id="home" stroke-linecap="round" stroke-linejoin="round" stroke-width="2" viewBox="0 0 24 24"><path d="M3 9l9-7 9 7v11a2 2 0 0 1-2 2H5a2 2 0 0 1-2-2z"/><polyline points="9 22 9 12 15 12 15 22"/></symbol><symbol id="list" viewBox="0 0 24 24"><line stroke-linecap="round" stroke-miterlimit="10" stroke-width="2" x1="8" x2="21" y1="6" y2="6"/><line stroke-linecap="round" stroke-miterlimit="10" stroke-width="2" x1="8" x2="21" y1="12" y2="12"/><line stroke-linecap="round" stroke-miterlimit="10" stroke-width="2" x1="8" x2="21" y1="18" y2="18"/><line stroke-linecap="round" stroke-miterlimit="10" stroke-width="2" x1="3" x2="3" y1="6" y2="6"/><line stroke-linecap="round" stroke-miterlimit="10" stroke-width="2" x1="3" x2="3" y1="12" y2="12"/><line stroke-linecap="round" stroke-miterlimit="10" stroke-width="2" x1="3" x2="3" y1="18" y2="18"/></symbol><symbol id="map-pin" stroke-linecap="round" stroke-linejoin="round" stroke-width="2" viewBox="0 0 24 24"><path d="M21 10c0 7-9 13-9 13s-9-6-9-13a9 9 0 0 1 18 0z"/><circle cx="12" cy="10" r="3"/></symbol><symbol id="maximize" height="24" stroke-linecap="round" stroke-linejoin="round" stroke-width="2" viewBox="0 0 24 24"><polyline points="15 3 21 3 21 9"/><polyline points="9 21 3 21 3 15"/><line x1="21" x2="14" y1="3" y2="10"/><line x1="3" x2="10" y1="21" y2="14"/></symbol><symbol id="menu" height="24" stroke-linecap="round" stroke-linejoin="round" stroke-width="2" viewBox="0 0 24 24"><line x1="3" x2="21" y1="12" y2="12"/><line x1="3" x2="21" y1="6" y2="6"/><line x1="3" x2="21" y1="18" y2="18"/></symbol>

<symbol id="search" height="24" stroke-linecap="round" stroke-linejoin="round" stroke-width="2" viewBox="0 0 24 24"><circle cx="10.5" cy="10.5" r="7.5"/><line x1="21" x2="15.8" y1="21" y2="15.8"/></symbol>

<symbol id="trash" height="24" stroke-linecap="round" stroke-linejoin="round" stroke-width="2" viewBox="0 0 24 24"><polyline points="3 6 5 6 21 6"/><path d="M19 6v14a2 2 0 0 1-2 2H7a2 2 0 0 1-2-2V6m3 0V4a2 2 0 0 1 2-2h4a2 2 0 0 1 2 2v2"/><line x1="10" x2="10" y1="11" y2="17"/><line x1="14" x2="14" y1="11" y2="17"/></symbol>

<symbol id="facebook" height="48px" viewBox="0 0 48 48" width="48px"><path d="M28.47074,16.05939c2.08691-0.02441,2.71143-0.00049,2.71729-0.00049 c0.08984,0.00684,0.18457-0.02979,0.25293-0.09375c0.06885-0.06396,0.1084-0.15283,0.11133-0.24658l0.12744-4.7583 c0-0.34717, 0-0.34717-1.2832-0.36523l-0.12549-0.00195c-0.29248-0.00342-0.5874-0.01123-0.88379-0.01953 c-1.36572-0.03711-2.77637-0.07568-4.11816,0.31738c-1.39258,0.4082-2.51855,1.19434-3.25635,2.27393 c-0.79736,1.16699-1.23633,2.74316-1.23633,4.43799v3.36328h-3.98193c-0.18994,0-0.34521,0.15186-0.3501,0.3418l-0.12402,5.13721 c-0.00195,0.09375,0.03369,0.18457,0.09912,0.25195s0.15527,0.10596,0.24902,0.10645l4.06299,0.02246l0.13184,10.27685 c0.00244,0.19141,0.15869,0.3457,0.3501,0.3457h5.02539c0.19189,0,0.34814-0.15479,0.3501-0.34668l0.10742-10.29834h3.80029 c0.1748,0,0.32227-0.12891,0.34668-0.30176l0.70557-5.05029c0.01367-0.09912-0.01562-0.19971-0.08057-0.27588 s-0.15967-0.12061-0.25977-0.12256l-4.53125-0.08057l0.02295-3.60449C26.70023,17.23615,26.75101,16.07941,28.47074,16.05939z"/></symbol><symbol id="gplus" height="56.6934px" viewBox="0 0 56.6934 56.6934" width="56.6934px"><path d="M19.6671,25.7867c-0.0075,1.7935,0,3.5869,0.0076,5.3803c3.0067,0.098,6.0208,0.0527,9.0275,0.098 c-1.3262,6.6689-10.3989,8.8315-15.199,4.4761C8.5674,31.9206,8.801,23.5412,13.9327,19.992 c3.5869-2.8635,8.6884-2.1552,12.2752,0.324c1.4092-1.3036,2.7278-2.6977,4.0013-4.1445 c-2.984-2.3812-6.6462-4.0767-10.5421-3.8958c-8.1307-0.2713-15.6059,6.8497-15.7415,14.9805 c-0.52,6.6462,3.8506,13.1644,10.0222,15.5155c6.1489,2.3661,14.031,0.7535,17.957-4.77c2.5922-3.4889,3.1498-7.98,2.8484-12.1999 C29.7194,25.7641,24.6933,25.7716,19.6671,25.7867z"/><path d="M49.0704,25.7641c-0.0151-1.4996-0.0226-3.0067-0.0301-4.5062c-1.4996,0-2.9916,0-4.4836,0 c-0.0151,1.4996-0.0301,2.9991-0.0377,4.5062c-1.5071,0.0075-3.0067,0.0151-4.5062,0.0302c0,1.4995,0,2.9915,0,4.4836 c1.4995,0.0151,3.0066,0.0302,4.5062,0.0452c0.0151,1.4996,0.0151,2.9991,0.0302,4.4987c1.4996,0,2.9916,0,4.4911,0 c0.0075-1.4996,0.015-2.9991,0.0301-4.5062c1.5071-0.0151,3.0067-0.0226,4.5062-0.0377c0-1.4921,0-2.9916,0-4.4836 C52.0771,25.7792,50.57,25.7792,49.0704,25.7641z"/></symbol><symbol id="twitter" height="56.693px" viewBox="0 0 56.693 56.693" width="56.693px"><path d="M52.837,15.065c-1.811,0.805-3.76,1.348-5.805,1.591c2.088-1.25,3.689-3.23,4.444-5.592c-1.953,1.159-4.115,2-6.418,2.454 c-1.843-1.964-4.47-3.192-7.377-3.192c-5.581,0-10.106,4.525-10.106,10.107c0,0.791,0.089,1.562,0.262,2.303 c-8.4-0.422-15.848-4.445-20.833-10.56c-0.87,1.492-1.368,3.228-1.368,5.082c0,3.506,1.784,6.6,4.496,8.412 c-1.656-0.053-3.215-0.508-4.578-1.265c-0.001,0.042-0.001,0.085-0.001,0.128c0,4.896,3.484,8.98,8.108,9.91 c-0.848,0.23-1.741,0.354-2.663,0.354c-0.652,0-1.285-0.063-1.902-0.182c1.287,4.015,5.019,6.938,9.441,7.019 c-3.459,2.711-7.816,4.327-12.552,4.327c-0.815,0-1.62-0.048-2.411-0.142c4.474,2.869,9.786,4.541,15.493,4.541 c18.591,0,28.756-15.4,28.756-28.756c0-0.438-0.009-0.875-0.028-1.309C49.769,18.873,51.483,17.092,52.837,15.065z"/></symbol><symbol id="instagram" height="56.7px" viewBox="0 0 56.7 56.7" width="56.7px"><path d="M28.2,16.7c-7,0-12.8,5.7-12.8,12.8s5.7,12.8,12.8,12.8S41,36.5,41,29.5S35.2,16.7,28.2,16.7z M28.2,37.7
c-4.5,0-8.2-3.7-8.2-8.2s3.7-8.2,8.2-8.2s8.2,3.7,8.2,8.2S32.7,37.7,28.2,37.7z"/><circle cx="41.5" cy="16.4" r="2.9"/><path d="M49,8.9c-2.6-2.7-6.3-4.1-10.5-4.1H17.9c-8.7,0-14.5,5.8-14.5,14.5v20.5c0,4.3,1.4,8,4.2,10.7c2.7,2.6,6.3,3.9,10.4,3.9
h20.4c4.3,0,7.9-1.4,10.5-3.9c2.7-2.6,4.1-6.3,4.1-10.6V19.3C53,15.1,51.6,11.5,49,8.9z M48.6,39.9c0,3.1-1.1,5.6-2.9,7.3
s-4.3,2.6-7.3,2.6H18c-3,0-5.5-0.9-7.3-2.6C8.9,45.4,8,42.9,8,39.8V19.3c0-3,0.9-5.5,2.7-7.3c1.7-1.7,4.3-2.6,7.3-2.6h20.6
c3,0,5.5,0.9,7.3,2.7c1.7,1.8,2.7,4.3,2.7,7.2V39.9L48.6,39.9z"/></symbol></svg>