<svg version="1" xmlns="http://www.w3.org/2000/svg" width="346.667" height="346.667" viewBox="0 0 260.000000 260.000000"><path d="M28.1 24.4c-5.2 2.9-5-1.2-5.1 105.4 0 107.9-.2 103.4 5.5 106 1.9.9 27 1.2 101.6 1.2 107.5 0 103.1.2 105.7-5.5 1.7-3.8 1.7-199.2 0-203-2.6-5.7 1.9-5.5-106-5.5-80.5.1-99.8.3-101.7 1.4zm120.7 90.3c-.3 55.7-.3 56.9-2.5 62.1-3.1 7.6-6.3 11.4-14.2 16.6-7.3 4.9-20 10.2-21.1 8.9-.4-.4-1.7-3.3-3-6.3s-2.9-7-3.6-8.7c-1.4-3.2-1.3-3.3 1.7-4.8 1.6-.9 4.8-3.2 7-5.2 7.8-7.1 7.4-3.3 7.7-64.6l.3-54.7h28l-.3 56.7z"/></svg>